<?xml version="1.0" encoding="utf-8"?>
<!-- Generator: Adobe Illustrator 21.1.0, SVG Export Plug-In . SVG Version: 6.00 Build 0)  -->
<svg version="1.1" id="Layer_1" xmlns="http://www.w3.org/2000/svg" xmlns:xlink="http://www.w3.org/1999/xlink" x="0px" y="0px"
	 viewBox="0 0 500 500" style="enable-background:new 0 0 500 500;" xml:space="preserve">
<style type="text/css">
	.st0{fill:black;}
</style>
<path class="st0" d="M318.7,23c-84.6,0-153.5,68.8-153.5,153.5c0,34.7,11.6,66.8,31.1,92.6L24.6,440.8l34.9,34.9l172.6-172.6
	c24.7,16.9,54.5,26.8,86.6,26.8c84.6,0,153.5-68.8,153.5-153.5C472.2,91.8,403.3,23,318.7,23z M318.7,290
	c-62.6,0-113.5-50.9-113.5-113.5S256.1,63,318.7,63s113.5,50.9,113.5,113.5S381.3,290,318.7,290z"/>
</svg>
