<svg height='100px' width='100px'  fill="#db8787" xmlns="http://www.w3.org/2000/svg" xmlns:xlink="http://www.w3.org/1999/xlink" xml:space="preserve" version="1.1" style="shape-rendering:geometricPrecision;text-rendering:geometricPrecision;image-rendering:optimizeQuality;" viewBox="0 0 128 187" x="0px" y="0px" fill-rule="evenodd" clip-rule="evenodd"><defs><style type="text/css">
   
    .fil0 {fill:#db8787}
   
  </style></defs><g><path class="fil0" d="M20 45l89 0c10,0 19,9 19,20l0 102c0,11 -9,20 -19,20l-89 0c-11,0 -20,-9 -20,-20l0 -102c0,-11 9,-20 20,-20zm27 -45l35 0c11,0 10,11 10,19l26 0c6,0 10,5 10,11 0,6 -4,10 -10,10l-107 0c-6,0 -11,-4 -11,-10 0,-6 5,-11 11,-11l25 0c0,-8 -1,-19 11,-19zm31 19c-1,-3 -4,-6 -7,-6l-13 0c-4,0 -7,3 -8,6l28 0zm-48 47c4,0 6,3 6,6l0 91c0,3 -2,6 -6,6 -3,0 -5,-3 -5,-6l0 -91c0,-3 2,-6 5,-6zm34 0c3,0 6,3 6,6l0 91c0,3 -3,6 -6,6 -3,0 -6,-3 -6,-6l0 -91c0,-3 3,-6 6,-6zm34 0c3,0 6,3 6,6l0 91c0,3 -3,6 -6,6 -3,0 -6,-3 -6,-6l0 -91c0,-3 3,-6 6,-6z"></path></g></svg>