<svg xmlns="http://www.w3.org/2000/svg" viewBox="0 0 29.23 29.15"><defs><style>.cls-1{fill:#f89c1c;}</style></defs><title>search-icon</title><g id="Layer_2" data-name="Layer 2"><g id="Layer_1-2" data-name="Layer 1"><path class="cls-1" d="M20.07,6.61a9.42,9.42,0,0,0-3.69-2.28L13.3,0,10.18,4.4h0l-5.7,5.7,0,0L0,13.3l4.47,3.17A9.29,9.29,0,0,0,6.69,20a9.46,9.46,0,0,0,11.69,1.35l7.82,7.81,3-3L21.41,18.3A9.46,9.46,0,0,0,20.07,6.61ZM18,17.89a6.19,6.19,0,1,1,0-8.75A6.19,6.19,0,0,1,18,17.89Z"/></g></g></svg>